<svg width="198" height="113" viewBox="0 0 198 113" fill="none" xmlns="http://www.w3.org/2000/svg">
<rect x="1.46159" y="1.08854" width="195.761" height="111.161" rx="9.34539" fill="#F2F2F2" stroke="#E1E1E1" stroke-width="0.983725"/>
<rect x="14.7418" y="18.3027" width="25.5769" height="13.7722" rx="1.96745" fill="#858585"/>
<rect x="153.447" y="18.3027" width="25.5769" height="13.7722" rx="1.96745" fill="#858585"/>
<path d="M18.1263 56.1727L16.4341 58.2146L17.4706 58.9389L18.7882 56.7034L20.112 59.0076L21.1423 58.2458L19.5 56.2289L21.9416 55.6544L21.5607 54.4305L19.2628 55.4109L19.4813 52.7071H18.22L18.4135 55.3734L16.0969 54.3743L15.7222 55.5732L18.1263 56.1727ZM26.5741 56.1727L24.8819 58.2146L25.9185 58.9389L27.236 56.7034L28.5598 59.0076L29.5902 58.2458L27.9479 56.2289L30.3894 55.6544L30.0085 54.4305L27.7106 55.4109L27.9292 52.7071H26.6678L26.8614 55.3734L24.5447 54.3743L24.1701 55.5732L26.5741 56.1727ZM35.022 56.1727L33.3298 58.2146L34.3663 58.9389L35.6839 56.7034L37.0077 59.0076L38.038 58.2458L36.3958 56.2289L38.8373 55.6544L38.4564 54.4305L36.1585 55.4109L36.377 52.7071H35.1157L35.3092 55.3734L32.9926 54.3743L32.6179 55.5732L35.022 56.1727ZM43.4699 56.1727L41.7776 58.2146L42.8142 58.9389L44.1318 56.7034L45.4556 59.0076L46.4859 58.2458L44.8436 56.2289L47.2852 55.6544L46.9042 54.4305L44.6063 55.4109L44.8249 52.7071H43.5635L43.7571 55.3734L41.4404 54.3743L41.0658 55.5732L43.4699 56.1727Z" fill="#858585"/>
<path d="M60.4265 56.1717L58.7342 58.2136L59.7708 58.9379L61.0884 56.7025L62.4122 59.0066L63.4425 58.2448L61.8002 56.2279L64.2418 55.6534L63.8609 54.4295L61.5629 55.4099L61.7815 52.7061H60.5201L60.7137 55.3724L58.397 54.3733L58.0224 55.5722L60.4265 56.1717ZM68.8743 56.1717L67.1821 58.2136L68.2187 58.9379L69.5362 56.7025L70.86 59.0066L71.8903 58.2448L70.2481 56.2279L72.6896 55.6534L72.3087 54.4295L70.0108 55.4099L70.2293 52.7061H68.968L69.1616 55.3724L66.8449 54.3733L66.4702 55.5722L68.8743 56.1717ZM77.3222 56.1717L75.63 58.2136L76.6665 58.9379L77.9841 56.7025L79.3079 59.0066L80.3382 58.2448L78.6959 56.2279L81.1375 55.6534L80.7566 54.4295L78.4586 55.4099L78.6772 52.7061H77.4158L77.6094 55.3724L75.2928 54.3733L74.9181 55.5722L77.3222 56.1717ZM85.77 56.1717L84.0778 58.2136L85.1144 58.9379L86.4319 56.7025L87.7557 59.0066L88.786 58.2448L87.1438 56.2279L89.5853 55.6534L89.2044 54.4295L86.9065 55.4099L87.1251 52.7061H85.8637L86.0573 55.3724L83.7406 54.3733L83.366 55.5722L85.77 56.1717Z" fill="#858585"/>
<path d="M99.7755 56.1717L98.0833 58.2136L99.1198 58.9379L100.437 56.7025L101.761 59.0066L102.791 58.2448L101.149 56.2279L103.591 55.6534L103.21 54.4295L100.912 55.4099L101.13 52.7061H99.8691L100.063 55.3724L97.7461 54.3733L97.3714 55.5722L99.7755 56.1717ZM108.223 56.1717L106.531 58.2136L107.568 58.9379L108.885 56.7025L110.209 59.0066L111.239 58.2448L109.597 56.2279L112.039 55.6534L111.658 54.4295L109.36 55.4099L109.578 52.7061H108.317L108.511 55.3724L106.194 54.3733L105.819 55.5722L108.223 56.1717ZM116.671 56.1717L114.979 58.2136L116.016 58.9379L117.333 56.7025L118.657 59.0066L119.687 58.2448L118.045 56.2279L120.486 55.6534L120.106 54.4295L117.808 55.4099L118.026 52.7061H116.765L116.958 55.3724L114.642 54.3733L114.267 55.5722L116.671 56.1717ZM125.119 56.1717L123.427 58.2136L124.463 58.9379L125.781 56.7025L127.105 59.0066L128.135 58.2448L126.493 56.2279L128.934 55.6534L128.553 54.4295L126.256 55.4099L126.474 52.7061H125.213L125.406 55.3724L123.09 54.3733L122.715 55.5722L125.119 56.1717Z" fill="#858585"/>
<path d="M145.491 58.3322V56.1779C145.491 55.5951 145.423 55.081 145.285 54.6356C145.148 54.186 144.954 53.8072 144.705 53.4991C144.446 53.1952 144.134 52.9663 143.768 52.8122C143.406 52.654 142.994 52.5749 142.531 52.5749C142.074 52.5749 141.661 52.654 141.295 52.8122C140.933 52.9663 140.625 53.1952 140.371 53.4991C140.117 53.8072 139.921 54.186 139.784 54.6356C139.651 55.081 139.584 55.5951 139.584 56.1779V58.3322C139.584 58.915 139.651 59.4312 139.784 59.8808C139.921 60.3263 140.119 60.7009 140.377 61.0048C140.631 61.3087 140.941 61.5398 141.308 61.6979C141.674 61.852 142.086 61.929 142.544 61.929C143.006 61.929 143.418 61.852 143.78 61.6979C144.147 61.5398 144.455 61.3087 144.705 61.0048C144.958 60.7009 145.152 60.3263 145.285 59.8808C145.423 59.4312 145.491 58.915 145.491 58.3322ZM141.083 57.8015C141.083 57.6807 141.083 57.5788 141.083 57.4955C141.083 57.4122 141.083 57.2915 141.083 57.1333V55.9094C141.083 55.5348 141.116 55.2101 141.183 54.9353C141.249 54.6564 141.351 54.4295 141.489 54.2547C141.605 54.1006 141.751 53.9841 141.926 53.905C142.101 53.8259 142.303 53.7864 142.531 53.7864C142.748 53.7864 142.939 53.8197 143.106 53.8863C143.272 53.9529 143.414 54.0528 143.531 54.186C143.664 54.3359 143.766 54.5294 143.837 54.7667C143.911 55.004 143.957 55.285 143.974 55.6097L141.083 57.8015ZM143.986 58.582C143.986 58.965 143.953 59.298 143.887 59.5811C143.82 59.8642 143.716 60.0931 143.574 60.268C143.454 60.4179 143.308 60.5323 143.137 60.6114C142.967 60.6864 142.769 60.7238 142.544 60.7238C142.315 60.7238 142.113 60.6843 141.938 60.6052C141.768 60.5261 141.624 60.4074 141.507 60.2493C141.391 60.1036 141.297 59.9204 141.226 59.6998C141.16 59.4791 141.116 59.2252 141.095 58.9379L143.986 56.7587C143.986 56.8794 143.986 56.9959 143.986 57.1083C143.986 57.2166 143.986 57.3248 143.986 57.4331V58.582ZM155.026 58.3322V56.1779C155.026 55.5951 154.958 55.081 154.82 54.6356C154.683 54.186 154.489 53.8072 154.239 53.4991C153.981 53.1952 153.669 52.9663 153.303 52.8122C152.941 52.654 152.528 52.5749 152.066 52.5749C151.608 52.5749 151.196 52.654 150.83 52.8122C150.468 52.9663 150.16 53.1952 149.906 53.4991C149.652 53.8072 149.456 54.186 149.319 54.6356C149.186 55.081 149.119 55.5951 149.119 56.1779V58.3322C149.119 58.915 149.186 59.4312 149.319 59.8808C149.456 60.3263 149.654 60.7009 149.912 61.0048C150.166 61.3087 150.476 61.5398 150.842 61.6979C151.209 61.852 151.621 61.929 152.079 61.929C152.541 61.929 152.953 61.852 153.315 61.6979C153.682 61.5398 153.99 61.3087 154.239 61.0048C154.493 60.7009 154.687 60.3263 154.82 59.8808C154.958 59.4312 155.026 58.915 155.026 58.3322ZM150.618 57.8015C150.618 57.6807 150.618 57.5788 150.618 57.4955C150.618 57.4122 150.618 57.2915 150.618 57.1333V55.9094C150.618 55.5348 150.651 55.2101 150.718 54.9353C150.784 54.6564 150.886 54.4295 151.024 54.2547C151.14 54.1006 151.286 53.9841 151.461 53.905C151.636 53.8259 151.837 53.7864 152.066 53.7864C152.283 53.7864 152.474 53.8197 152.641 53.8863C152.807 53.9529 152.949 54.0528 153.065 54.186C153.199 54.3359 153.301 54.5294 153.371 54.7667C153.446 55.004 153.492 55.285 153.509 55.6097L150.618 57.8015ZM153.521 58.582C153.521 58.965 153.488 59.298 153.421 59.5811C153.355 59.8642 153.251 60.0931 153.109 60.268C152.988 60.4179 152.843 60.5323 152.672 60.6114C152.501 60.6864 152.304 60.7238 152.079 60.7238C151.85 60.7238 151.648 60.6843 151.473 60.6052C151.302 60.5261 151.159 60.4074 151.042 60.2493C150.926 60.1036 150.832 59.9204 150.761 59.6998C150.695 59.4791 150.651 59.2252 150.63 58.9379L153.521 56.7587C153.521 56.8794 153.521 56.9959 153.521 57.1083C153.521 57.2166 153.521 57.3248 153.521 57.4331V58.582ZM164.561 58.3322V56.1779C164.561 55.5951 164.492 55.081 164.355 54.6356C164.218 54.186 164.024 53.8072 163.774 53.4991C163.516 53.1952 163.204 52.9663 162.838 52.8122C162.475 52.654 162.063 52.5749 161.601 52.5749C161.143 52.5749 160.731 52.654 160.365 52.8122C160.003 52.9663 159.695 53.1952 159.441 53.4991C159.187 53.8072 158.991 54.186 158.854 54.6356C158.721 55.081 158.654 55.5951 158.654 56.1779V58.3322C158.654 58.915 158.721 59.4312 158.854 59.8808C158.991 60.3263 159.189 60.7009 159.447 61.0048C159.701 61.3087 160.011 61.5398 160.377 61.6979C160.744 61.852 161.156 61.929 161.614 61.929C162.076 61.929 162.488 61.852 162.85 61.6979C163.216 61.5398 163.525 61.3087 163.774 61.0048C164.028 60.7009 164.222 60.3263 164.355 59.8808C164.492 59.4312 164.561 58.915 164.561 58.3322ZM160.153 57.8015C160.153 57.6807 160.153 57.5788 160.153 57.4955C160.153 57.4122 160.153 57.2915 160.153 57.1333V55.9094C160.153 55.5348 160.186 55.2101 160.252 54.9353C160.319 54.6564 160.421 54.4295 160.558 54.2547C160.675 54.1006 160.821 53.9841 160.996 53.905C161.17 53.8259 161.372 53.7864 161.601 53.7864C161.818 53.7864 162.009 53.8197 162.176 53.8863C162.342 53.9529 162.484 54.0528 162.6 54.186C162.734 54.3359 162.836 54.5294 162.906 54.7667C162.981 55.004 163.027 55.285 163.044 55.6097L160.153 57.8015ZM163.056 58.582C163.056 58.965 163.023 59.298 162.956 59.5811C162.89 59.8642 162.786 60.0931 162.644 60.268C162.523 60.4179 162.378 60.5323 162.207 60.6114C162.036 60.6864 161.839 60.7238 161.614 60.7238C161.385 60.7238 161.183 60.6843 161.008 60.6052C160.837 60.5261 160.694 60.4074 160.577 60.2493C160.461 60.1036 160.367 59.9204 160.296 59.6998C160.23 59.4791 160.186 59.2252 160.165 58.9379L163.056 56.7587C163.056 56.8794 163.056 56.9959 163.056 57.1083C163.056 57.2166 163.056 57.3248 163.056 57.4331V58.582ZM174.096 58.3322V56.1779C174.096 55.5951 174.027 55.081 173.89 54.6356C173.752 54.186 173.559 53.8072 173.309 53.4991C173.051 53.1952 172.739 52.9663 172.372 52.8122C172.01 52.654 171.598 52.5749 171.136 52.5749C170.678 52.5749 170.266 52.654 169.9 52.8122C169.538 52.9663 169.23 53.1952 168.976 53.4991C168.722 53.8072 168.526 54.186 168.389 54.6356C168.255 55.081 168.189 55.5951 168.189 56.1779V58.3322C168.189 58.915 168.255 59.4312 168.389 59.8808C168.526 60.3263 168.724 60.7009 168.982 61.0048C169.236 61.3087 169.546 61.5398 169.912 61.6979C170.279 61.852 170.691 61.929 171.149 61.929C171.611 61.929 172.023 61.852 172.385 61.6979C172.751 61.5398 173.059 61.3087 173.309 61.0048C173.563 60.7009 173.757 60.3263 173.89 59.8808C174.027 59.4312 174.096 58.915 174.096 58.3322ZM169.687 57.8015C169.687 57.6807 169.687 57.5788 169.687 57.4955C169.687 57.4122 169.687 57.2915 169.687 57.1333V55.9094C169.687 55.5348 169.721 55.2101 169.787 54.9353C169.854 54.6564 169.956 54.4295 170.093 54.2547C170.21 54.1006 170.356 53.9841 170.53 53.905C170.705 53.8259 170.907 53.7864 171.136 53.7864C171.353 53.7864 171.544 53.8197 171.711 53.8863C171.877 53.9529 172.019 54.0528 172.135 54.186C172.268 54.3359 172.37 54.5294 172.441 54.7667C172.516 55.004 172.562 55.285 172.579 55.6097L169.687 57.8015ZM172.591 58.582C172.591 58.965 172.558 59.298 172.491 59.5811C172.425 59.8642 172.32 60.0931 172.179 60.268C172.058 60.4179 171.912 60.5323 171.742 60.6114C171.571 60.6864 171.373 60.7238 171.149 60.7238C170.92 60.7238 170.718 60.6843 170.543 60.6052C170.372 60.5261 170.229 60.4074 170.112 60.2493C169.995 60.1036 169.902 59.9204 169.831 59.6998C169.764 59.4791 169.721 59.2252 169.7 58.9379L172.591 56.7587C172.591 56.8794 172.591 56.9959 172.591 57.1083C172.591 57.2166 172.591 57.3248 172.591 57.4331V58.582Z" fill="#858585"/>
<path d="M20.4429 89.0643C20.4429 90.1281 20.2228 90.9418 19.7825 91.5054C19.3422 92.069 18.6976 92.3508 17.8486 92.3508C17.0103 92.3508 16.3692 92.0743 15.9254 91.5213C15.4816 90.9682 15.2544 90.1757 15.2438 89.1436V87.7276C15.2438 86.6532 15.4657 85.8378 15.9095 85.2812C16.3569 84.7247 16.9997 84.4464 17.8381 84.4464C18.6764 84.4464 19.3175 84.7229 19.7613 85.2759C20.2052 85.8254 20.4324 86.6162 20.4429 87.6483V89.0643ZM18.9159 87.5109C18.9159 86.8734 18.8279 86.4102 18.6518 86.1213C18.4792 85.829 18.2079 85.6828 17.8381 85.6828C17.4788 85.6828 17.2128 85.8219 17.0402 86.1002C16.8712 86.3749 16.7813 86.8064 16.7708 87.3947V89.2651C16.7708 89.8921 16.8553 90.3588 17.0244 90.6653C17.197 90.9682 17.4717 91.1197 17.8486 91.1197C18.222 91.1197 18.4915 90.9735 18.657 90.6811C18.8226 90.3888 18.9089 89.9414 18.9159 89.3391V87.5109ZM23.3025 87.7223H24.1161C24.5036 87.7223 24.7907 87.6254 24.9774 87.4317C25.1641 87.2379 25.2574 86.9808 25.2574 86.6603C25.2574 86.3503 25.1641 86.109 24.9774 85.9364C24.7942 85.7638 24.5406 85.6775 24.2165 85.6775C23.9242 85.6775 23.6794 85.7585 23.4821 85.9206C23.2848 86.0791 23.1862 86.2869 23.1862 86.544H21.6592C21.6592 86.1425 21.7667 85.7832 21.9815 85.4662C22.1999 85.1456 22.5029 84.8955 22.8903 84.7159C23.2813 84.5362 23.7111 84.4464 24.1795 84.4464C24.9932 84.4464 25.6308 84.6419 26.0922 85.0329C26.5537 85.4204 26.7844 85.9558 26.7844 86.6391C26.7844 86.9914 26.677 87.3154 26.4621 87.6113C26.2472 87.9072 25.9654 88.1344 25.6167 88.2929C26.05 88.4479 26.3723 88.6804 26.5836 88.9904C26.7985 89.3003 26.9059 89.6667 26.9059 90.0894C26.9059 90.7727 26.6558 91.3205 26.1556 91.7326C25.659 92.1447 25.0003 92.3508 24.1795 92.3508C23.4117 92.3508 22.7829 92.1482 22.2933 91.7432C21.8072 91.3381 21.5641 90.8027 21.5641 90.1369H23.0911C23.0911 90.4258 23.1985 90.6618 23.4134 90.8449C23.6318 91.0281 23.8995 91.1197 24.2165 91.1197C24.5793 91.1197 24.8629 91.0246 25.0672 90.8344C25.275 90.6406 25.3789 90.3853 25.3789 90.0682C25.3789 89.3003 24.9563 88.9164 24.1109 88.9164H23.3025V87.7223ZM28.4445 92.9056H27.8686L31.0811 84.5521H31.6517L28.4445 92.9056ZM38.0777 92.2451H32.8046V91.1989L35.2932 88.5465C35.6349 88.1732 35.8868 87.8473 36.0488 87.5691C36.2144 87.2908 36.2971 87.0266 36.2971 86.7765C36.2971 86.4348 36.2108 86.1671 36.0382 85.9734C35.8656 85.7761 35.6191 85.6775 35.2985 85.6775C34.9533 85.6775 34.6803 85.7973 34.4796 86.0368C34.2823 86.2728 34.1837 86.5845 34.1837 86.972H32.6514C32.6514 86.5035 32.7624 86.0755 32.9843 85.6881C33.2097 85.3006 33.5267 84.9977 33.9353 84.7793C34.3439 84.5574 34.8071 84.4464 35.3249 84.4464C36.1175 84.4464 36.7322 84.6366 37.1689 85.017C37.6093 85.3975 37.8294 85.9346 37.8294 86.6286C37.8294 87.009 37.7308 87.3965 37.5335 87.791C37.3363 88.1855 36.9981 88.6452 36.5191 89.17L34.7702 91.014H38.0777V92.2451ZM44.5619 92.2451H39.2888V91.1989L41.7774 88.5465C42.1191 88.1732 42.3709 87.8473 42.5329 87.5691C42.6985 87.2908 42.7813 87.0266 42.7813 86.7765C42.7813 86.4348 42.695 86.1671 42.5224 85.9734C42.3498 85.7761 42.1032 85.6775 41.7827 85.6775C41.4375 85.6775 41.1645 85.7973 40.9637 86.0368C40.7664 86.2728 40.6678 86.5845 40.6678 86.972H39.1355C39.1355 86.5035 39.2465 86.0755 39.4684 85.6881C39.6938 85.3006 40.0109 84.9977 40.4195 84.7793C40.8281 84.5574 41.2913 84.4464 41.8091 84.4464C42.6016 84.4464 43.2163 84.6366 43.6531 85.017C44.0934 85.3975 44.3135 85.9346 44.3135 86.6286C44.3135 87.009 44.2149 87.3965 44.0177 87.791C43.8204 88.1855 43.4822 88.6452 43.0032 89.17L41.2543 91.014H44.5619V92.2451Z" fill="#858585"/>
<path d="M18.195 78.2464V77.5H16.1843V76.266H18.5245V75.496H15.2361V80.3916H18.5346V79.6283H16.1843V78.2464H18.195ZM21.1478 77.2512L20.2904 75.496H19.1875L20.5627 77.9236L19.1506 80.3916H20.2668L21.1612 78.6096L22.059 80.3916H23.1618L21.7496 77.9236L23.1282 75.496H22.0186L21.1478 77.2512ZM24.8033 78.5961H25.5329C25.7997 78.5961 26.0407 78.558 26.2559 78.4818C26.471 78.4056 26.6549 78.2991 26.8073 78.1624C26.9575 78.0279 27.0729 77.8676 27.1536 77.6816C27.2365 77.4955 27.278 77.2926 27.278 77.073C27.278 76.8376 27.2365 76.6235 27.1536 76.4308C27.0729 76.238 26.9575 76.0721 26.8073 75.9331C26.6549 75.7964 26.471 75.6899 26.2559 75.6137C26.0407 75.5353 25.7997 75.496 25.5329 75.496H23.8585V80.3916H24.8033V78.5961ZM24.8033 77.8295V76.2626H25.5329C25.6674 76.2626 25.784 76.2839 25.8826 76.3265C25.9813 76.3691 26.0642 76.4274 26.1314 76.5014C26.1965 76.5753 26.2446 76.6616 26.276 76.7603C26.3096 76.8589 26.3265 76.9654 26.3265 77.0797C26.3265 77.1783 26.3096 77.2736 26.276 77.3655C26.2446 77.4552 26.1965 77.5347 26.1314 77.6042C26.0642 77.6737 25.9813 77.7286 25.8826 77.769C25.784 77.8093 25.6674 77.8295 25.5329 77.8295H24.8033ZM28.3143 75.496V76.2593H29.2456V79.6317H28.3143V80.3916H31.1454V79.6317H30.1905V76.2593H31.1454V75.496H28.3143ZM34.0746 78.5625L34.9959 80.3916H36.008V80.3479L34.9556 78.3271C35.0901 78.2666 35.2111 78.1949 35.3187 78.1119C35.4285 78.029 35.5227 77.9315 35.6011 77.8194C35.6774 77.7096 35.7356 77.5852 35.776 77.4462C35.8186 77.305 35.8399 77.1469 35.8399 76.9721C35.8399 76.73 35.7973 76.5171 35.7121 76.3333C35.6292 76.1494 35.5104 75.9959 35.3557 75.8726C35.1988 75.7493 35.0105 75.6563 34.7908 75.5935C34.5711 75.5285 34.3257 75.496 34.0545 75.496H32.4136V80.3916H33.3585V78.5625H34.0746ZM33.3585 77.7959V76.2626H34.0545C34.1845 76.2626 34.2999 76.2783 34.4008 76.3097C34.5017 76.3411 34.5868 76.3859 34.6563 76.4442C34.7348 76.5092 34.7931 76.5922 34.8312 76.693C34.8715 76.7917 34.8917 76.906 34.8917 77.036C34.8917 77.1436 34.876 77.2411 34.8446 77.3285C34.8155 77.4159 34.7718 77.491 34.7135 77.5538C34.644 77.6322 34.5532 77.6928 34.4411 77.7354C34.3313 77.7757 34.2035 77.7959 34.0578 77.7959H33.3585ZM39.7341 78.2464V77.5H37.7235V76.266H40.0636V75.496H36.7753V80.3916H40.0737V79.6283H37.7235V78.2464H39.7341Z" fill="#858585"/>
<path d="M72.2062 91.2783V83.5853H72.1269L68.7771 84.7952V86.0739L70.7215 85.3764V91.2783H72.2062ZM80.4075 91.2783V90.1001H77.0313L78.479 88.5678C78.7291 88.3107 78.9563 88.0658 79.1606 87.8334C79.3649 87.5974 79.541 87.3666 79.6889 87.1412C79.8334 86.9158 79.9443 86.6886 80.0218 86.4596C80.1028 86.2271 80.1433 85.9841 80.1433 85.7305C80.1433 85.3958 80.0905 85.0911 79.9848 84.8164C79.8792 84.5381 79.7259 84.3003 79.5252 84.1031C79.3209 83.9058 79.0672 83.7526 78.7643 83.6434C78.4649 83.5342 78.1197 83.4796 77.7287 83.4796C77.3201 83.4796 76.9467 83.5465 76.6086 83.6804C76.2739 83.8107 75.9886 83.9904 75.7526 84.2193C75.5131 84.4483 75.3281 84.716 75.1978 85.0224C75.0675 85.3254 75.0023 85.6477 75.0023 85.9894H76.4765C76.4765 85.7815 76.5029 85.5966 76.5557 85.4346C76.6086 85.2725 76.6861 85.1369 76.7882 85.0277C76.8868 84.9221 77.0101 84.8428 77.1581 84.79C77.3095 84.7336 77.4839 84.7054 77.6811 84.7054C77.8326 84.7054 77.97 84.7301 78.0933 84.7794C78.2201 84.8287 78.3293 84.8992 78.4209 84.9907C78.5089 85.0858 78.5776 85.2003 78.6269 85.3342C78.6762 85.468 78.7009 85.6213 78.7009 85.7939C78.7009 85.9101 78.6815 86.0299 78.6428 86.1532C78.6076 86.2764 78.5494 86.4085 78.4684 86.5494C78.3839 86.6938 78.2747 86.8524 78.1408 87.025C78.007 87.1976 77.8432 87.3895 77.6494 87.6009L75.1608 90.2744V91.2783H80.4075ZM83.6263 86.7872V87.9285H84.4242C84.625 87.9285 84.8046 87.9514 84.9631 87.9972C85.1251 88.0429 85.2643 88.1134 85.3805 88.2085C85.4932 88.3036 85.5795 88.4251 85.6394 88.5731C85.6993 88.721 85.7293 88.8989 85.7293 89.1067C85.7293 89.2723 85.7028 89.422 85.65 89.5558C85.6007 89.6897 85.5267 89.8024 85.4281 89.894C85.3259 89.9961 85.1991 90.0736 85.0477 90.1265C84.8962 90.1793 84.7254 90.2057 84.5351 90.2057C84.3661 90.2057 84.2111 90.1811 84.0702 90.1318C83.9293 90.0789 83.8078 90.0067 83.7056 89.9151C83.5999 89.8271 83.5189 89.7214 83.4626 89.5981C83.4062 89.4713 83.378 89.3339 83.378 89.186H81.9091C81.9091 89.5594 81.9814 89.8834 82.1258 90.1582C82.2737 90.4329 82.4692 90.6601 82.7123 90.8398C82.9553 91.0229 83.2318 91.1603 83.5418 91.2519C83.8553 91.34 84.1758 91.384 84.5034 91.384C84.8839 91.384 85.2379 91.3347 85.5655 91.2361C85.8966 91.1339 86.1819 90.986 86.4214 90.7922C86.6609 90.602 86.8494 90.366 86.9868 90.0842C87.1241 89.8024 87.1928 89.4819 87.1928 89.1226C87.1928 88.9183 87.1682 88.7245 87.1189 88.5414C87.0695 88.3582 86.9938 88.1891 86.8917 88.0341C86.7895 87.8827 86.6592 87.7471 86.5007 87.6273C86.3457 87.5075 86.1608 87.4089 85.9459 87.3314C86.129 87.2433 86.2911 87.1394 86.432 87.0197C86.5729 86.8964 86.6909 86.7625 86.786 86.6181C86.8811 86.4737 86.9533 86.3222 87.0026 86.1637C87.0519 86.0017 87.0766 85.8379 87.0766 85.6723C87.0766 85.313 87.0132 84.9978 86.8864 84.7266C86.7631 84.4518 86.5887 84.2211 86.3633 84.0344C86.1379 83.8512 85.8666 83.7139 85.5496 83.6223C85.2326 83.5272 84.8839 83.4796 84.5034 83.4796C84.1512 83.4796 83.8218 83.5307 83.5154 83.6328C83.2125 83.735 82.9483 83.8776 82.7228 84.0608C82.4974 84.2475 82.3195 84.4694 82.1892 84.7266C82.0624 84.9837 81.999 85.269 81.999 85.5825H83.4678C83.4678 85.4416 83.496 85.3148 83.5524 85.2021C83.6087 85.0894 83.6862 84.9925 83.7849 84.9115C83.88 84.834 83.9909 84.7741 84.1177 84.7318C84.2481 84.6896 84.3872 84.6684 84.5351 84.6684C84.7148 84.6684 84.8715 84.6931 85.0054 84.7424C85.1428 84.7917 85.2555 84.8604 85.3435 84.9485C85.4316 85.0401 85.4968 85.1493 85.539 85.2761C85.5848 85.3993 85.6077 85.5367 85.6077 85.6882C85.6077 85.8432 85.5848 85.9876 85.539 86.1214C85.4968 86.2518 85.4316 86.3627 85.3435 86.4543C85.2484 86.56 85.1234 86.6428 84.9684 86.7027C84.8169 86.759 84.6355 86.7872 84.4242 86.7872H83.6263Z" fill="#858585"/>
<path d="M71.7028 78.8584H70.758C70.749 79.0063 70.7244 79.133 70.684 79.2383C70.6437 79.3437 70.5888 79.43 70.5193 79.4972C70.4498 79.5645 70.3657 79.6138 70.2671 79.6452C70.1685 79.6765 70.0575 79.6922 69.9342 79.6922C69.8423 79.6922 69.7583 79.6821 69.682 79.662C69.6081 79.6396 69.5408 79.6059 69.4803 79.5611C69.4243 79.5208 69.3738 79.4703 69.329 79.4098C69.2864 79.3493 69.2494 79.2798 69.218 79.2013C69.1732 79.087 69.1396 78.9536 69.1172 78.8012C69.097 78.6465 69.0869 78.4717 69.0869 78.2767V77.6109C69.0869 77.4675 69.0936 77.3341 69.1071 77.2108C69.1205 77.0853 69.1418 76.971 69.171 76.8679C69.2091 76.7356 69.2595 76.6202 69.3223 76.5215C69.3873 76.4207 69.4657 76.3433 69.5576 76.2895C69.6114 76.2582 69.6697 76.2346 69.7325 76.2189C69.7975 76.2032 69.867 76.1954 69.9409 76.1954C70.0799 76.1954 70.1987 76.2145 70.2973 76.2526C70.3982 76.2884 70.4823 76.3422 70.5495 76.414C70.6145 76.4879 70.6638 76.5798 70.6975 76.6897C70.7333 76.7995 70.7557 76.9273 70.7647 77.073H71.7062C71.6838 76.8174 71.63 76.5877 71.5448 76.3837C71.4596 76.1797 71.343 76.0071 71.1951 75.8659C71.0472 75.7247 70.8678 75.616 70.6571 75.5397C70.4487 75.4635 70.2099 75.4254 69.9409 75.4254C69.7594 75.4254 69.589 75.449 69.4299 75.496C69.273 75.5409 69.1284 75.6059 68.9961 75.691C68.8482 75.7919 68.7159 75.9152 68.5994 76.0609C68.4828 76.2066 68.3887 76.3725 68.3169 76.5585C68.2542 76.711 68.2071 76.8768 68.1757 77.0562C68.1443 77.2332 68.1286 77.4204 68.1286 77.6177V78.2767C68.1286 78.4874 68.1455 78.6869 68.1791 78.8752C68.2149 79.0635 68.2654 79.2361 68.3304 79.393C68.3976 79.5499 68.4794 79.6934 68.5758 79.8234C68.6745 79.9534 68.7865 80.0643 68.9121 80.1562C69.0488 80.2549 69.2023 80.3311 69.3727 80.3849C69.5453 80.4364 69.7325 80.4622 69.9342 80.4622C70.1898 80.4622 70.4229 80.4252 70.6336 80.3513C70.8443 80.275 71.0259 80.1674 71.1783 80.0285C71.3307 79.8895 71.4518 79.7214 71.5414 79.5241C71.6333 79.3269 71.6871 79.1049 71.7028 78.8584ZM73.7545 80.3916H74.7161L76.1989 75.496H75.1566L74.3227 78.6903L74.232 79.0231L74.1479 78.6936L73.3174 75.496H72.2751L73.7545 80.3916ZM78.0623 80.3916H79.024L80.5068 75.496H79.4644L78.6306 78.6903L78.5398 79.0231L78.4557 78.6936L77.6252 75.496H76.5829L78.0623 80.3916Z" fill="#858585"/>
<g filter="url(#filter0_b)">
<rect x="0.969727" y="0.59668" width="196.745" height="112.145" rx="9.83725" fill="#8F8F8F" fill-opacity="0.61"/>
</g>
<g filter="url(#filter1_d)">
<circle cx="99.3422" cy="57.652" r="13.7722" fill="white"/>
</g>
<path d="M103.946 57.4928V57.7682H99.539V62.2934H99.2242V57.7682H94.8171V57.4928H99.2242V53.1251H99.539V57.4928H103.946Z" fill="#6F6F6F"/>
<defs>
<filter id="filter0_b" x="-3.9489" y="-4.32195" width="206.582" height="121.982" filterUnits="userSpaceOnUse" color-interpolation-filters="sRGB">
<feFlood flood-opacity="0" result="BackgroundImageFix"/>
<feGaussianBlur in="BackgroundImage" stdDeviation="2.45931"/>
<feComposite in2="SourceAlpha" operator="in" result="effect1_backgroundBlur"/>
<feBlend mode="normal" in="SourceGraphic" in2="effect1_backgroundBlur" result="shape"/>
</filter>
<filter id="filter1_d" x="81.6352" y="43.8799" width="35.4141" height="35.4141" filterUnits="userSpaceOnUse" color-interpolation-filters="sRGB">
<feFlood flood-opacity="0" result="BackgroundImageFix"/>
<feColorMatrix in="SourceAlpha" type="matrix" values="0 0 0 0 0 0 0 0 0 0 0 0 0 0 0 0 0 0 127 0"/>
<feOffset dy="3.9349"/>
<feGaussianBlur stdDeviation="1.96745"/>
<feColorMatrix type="matrix" values="0 0 0 0 0 0 0 0 0 0 0 0 0 0 0 0 0 0 0.25 0"/>
<feBlend mode="normal" in2="BackgroundImageFix" result="effect1_dropShadow"/>
<feBlend mode="normal" in="SourceGraphic" in2="effect1_dropShadow" result="shape"/>
</filter>
</defs>
</svg>
